<svg width="136" height="166" viewBox="0 0 136 166" fill="none" xmlns="http://www.w3.org/2000/svg">
<g clip-path="url(#clip0_1504_3757)">
<path d="M115.686 5.00187C113.5 3.67914 111.159 2.59117 108.674 1.76503C101.414 -0.645673 93.8034 -0.514754 86.4987 1.72139C81.9854 3.1028 77.5891 5.28929 73.4643 8.17701C73.4268 8.20259 73.3893 8.22817 73.3533 8.25376C73.3533 8.25376 59.32 18.184 63.0128 20.9498C63.2618 21.1364 63.5078 21.2553 63.7538 21.3185C66.5857 22.0393 69.293 15.0766 75.4487 14.6161C75.6557 14.601 75.8657 14.592 76.0802 14.592C76.1942 14.592 76.3082 14.5935 76.4252 14.598C76.5602 14.6025 76.6952 14.6116 76.8287 14.6206C76.8722 14.6236 76.9142 14.6281 76.9577 14.6326C77.0477 14.6402 77.1392 14.6492 77.2292 14.6597C77.2786 14.6657 77.3281 14.6733 77.3776 14.6793C77.4601 14.6898 77.5426 14.7003 77.6251 14.7139C77.6761 14.7214 77.7256 14.7304 77.7766 14.7395C77.8576 14.753 77.9371 14.7681 78.0181 14.7831C78.0676 14.7936 78.1171 14.8042 78.1666 14.8147C78.2461 14.8313 78.3271 14.8493 78.4066 14.8689C78.4546 14.8809 78.5011 14.893 78.5491 14.905C78.6301 14.9261 78.7111 14.9471 78.7906 14.9697C78.8356 14.9817 78.8806 14.9953 78.9241 15.0088C79.0066 15.0329 79.0891 15.0585 79.1701 15.0856C79.2106 15.0991 79.2526 15.1127 79.2931 15.1262C79.3785 15.1548 79.4625 15.1849 79.5465 15.2165C79.5825 15.23 79.6185 15.2436 79.6545 15.2571C79.7445 15.2917 79.833 15.3279 79.9215 15.3655C79.9515 15.3775 79.98 15.3896 80.01 15.4031C80.1075 15.4452 80.2035 15.4889 80.2995 15.534C80.319 15.543 80.34 15.5521 80.3595 15.5626C80.4705 15.6153 80.58 15.671 80.688 15.7266C80.6925 15.7296 80.6985 15.7311 80.703 15.7342C81.288 16.0426 81.8384 16.4098 82.3499 16.8297C85.2028 19.1741 86.8137 23.1814 86.0082 27.9953C85.5687 30.728 84.3493 33.7226 82.1339 36.821L53.8483 71.2766C51.6584 74.3404 50.4434 77.3018 49.9905 80.009C48.777 87.5405 53.4868 93.0797 59.5885 93.31C59.9335 93.3235 60.253 93.3491 60.5484 93.3867C67.2366 92.8871 69.854 84.7085 72.9844 87.0515C76.6142 89.7692 63.1193 99.4089 62.6573 99.7385C66.0382 102.59 69.9065 104.81 74.2053 106.238C78.2326 107.576 82.3694 108.131 86.5017 107.977C105.641 107.272 124.691 91.3718 132.52 67.6455C140.996 41.9569 133.458 15.7552 115.687 5.00488L115.686 5.00187Z" fill="#FFB7DA"/>
<path d="M76.412 14.6926C76.067 14.679 75.7476 14.6535 75.4521 14.6158C69.2964 15.0763 66.589 22.0391 63.7571 21.3183C63.5126 21.2566 63.2667 21.1362 63.0162 20.9496C59.3863 18.2319 72.8812 8.5921 73.3432 8.26255C69.9623 5.41094 66.094 3.19135 61.7952 1.76329C39.1088 -5.76978 12.9995 11.5084 3.4825 40.3571C-4.99359 66.0456 2.54354 92.2473 20.3147 102.998C22.5001 104.32 24.8415 105.408 27.3269 106.235C39.1118 110.149 51.8207 107.366 62.6472 99.7443C62.6472 99.7443 62.6517 99.7413 62.6607 99.7353C63.1227 99.4057 76.6175 89.7659 72.9877 87.0482C69.8573 84.7052 67.24 92.8824 60.5518 93.3835C60.2353 93.4075 59.9098 93.4136 59.5753 93.4015C53.4481 93.1713 48.7248 87.5869 49.9938 80.0057C50.4333 77.273 51.6527 74.2784 53.8681 71.18L82.1538 36.7245C84.3436 33.6607 85.5586 30.6992 86.0116 27.9921C87.225 20.4605 82.5152 14.9213 76.4135 14.6911L76.412 14.6926Z" fill="#FE7C58"/>
</g>
<path d="M32.2488 157.384C31.2248 157.384 30.2221 157.213 29.2408 156.872C28.2808 156.509 27.4061 155.987 26.6168 155.304C25.8488 154.621 25.2301 153.789 24.7608 152.808C24.3128 151.805 24.0888 150.675 24.0888 149.416C24.0888 148.157 24.3128 147.037 24.7608 146.056C25.2301 145.075 25.8488 144.243 26.6168 143.56C27.3848 142.877 28.2488 142.355 29.2088 141.992C30.1688 141.629 31.1608 141.448 32.1848 141.448C32.9314 141.448 33.6354 141.555 34.2968 141.768C34.9794 141.981 35.5661 142.237 36.0568 142.536C36.5474 142.835 36.8994 143.133 37.1128 143.432C37.3901 143.688 37.6248 143.933 37.8168 144.168C38.0088 144.403 38.0728 144.691 38.0088 145.032C37.9448 145.245 37.8488 145.448 37.7208 145.64C37.5928 145.811 37.4328 145.992 37.2408 146.184C36.7288 146.76 36.2274 146.973 35.7368 146.824C35.4594 146.675 35.1821 146.515 34.9048 146.344C34.6274 146.173 34.3394 146.013 34.0408 145.864C33.7634 145.693 33.4754 145.555 33.1768 145.448C32.8781 145.341 32.5474 145.288 32.1848 145.288C31.3741 145.288 30.6488 145.469 30.0088 145.832C29.3901 146.173 28.8994 146.653 28.5368 147.272C28.1954 147.891 28.0248 148.605 28.0248 149.416C28.0248 150.227 28.1954 150.952 28.5368 151.592C28.8994 152.211 29.3901 152.701 30.0088 153.064C30.6274 153.405 31.3314 153.576 32.1208 153.576C32.5048 153.576 32.8674 153.533 33.2088 153.448C33.5714 153.341 33.8914 153.213 34.1688 153.064C34.4461 152.893 34.6701 152.723 34.8408 152.552C35.0754 152.403 35.2888 152.264 35.4808 152.136C35.6728 152.008 35.8754 151.944 36.0888 151.944C36.3448 151.944 36.5901 152.04 36.8248 152.232C37.0808 152.403 37.3581 152.68 37.6568 153.064C37.9341 153.384 38.0834 153.693 38.1048 153.992C38.1474 154.291 38.0834 154.579 37.9128 154.856C37.7634 155.133 37.5074 155.389 37.1448 155.624C36.8888 155.88 36.5048 156.147 35.9928 156.424C35.5021 156.68 34.9261 156.904 34.2648 157.096C33.6248 157.288 32.9528 157.384 32.2488 157.384ZM42.392 157.32C41.7947 157.32 41.3573 157.224 41.08 157.032C40.824 156.861 40.664 156.627 40.6 156.328C40.536 156.029 40.504 155.709 40.504 155.368V136.264C40.504 135.901 40.536 135.581 40.6 135.304C40.6853 135.005 40.856 134.771 41.112 134.6C41.3893 134.429 41.8267 134.344 42.424 134.344C43.0213 134.344 43.448 134.44 43.704 134.632C43.9813 134.803 44.152 135.037 44.216 135.336C44.3013 135.613 44.344 135.933 44.344 136.296V143.528C44.7707 143.037 45.3147 142.589 45.976 142.184C46.6587 141.757 47.48 141.544 48.44 141.544C49.7413 141.544 50.904 141.864 51.928 142.504C52.952 143.123 53.7627 143.987 54.36 145.096C54.9573 146.205 55.256 147.507 55.256 149V155.4C55.256 155.741 55.224 156.061 55.16 156.36C55.096 156.637 54.9253 156.861 54.648 157.032C54.392 157.203 53.9653 157.288 53.368 157.288C52.7707 157.288 52.3333 157.203 52.056 157.032C51.7787 156.861 51.608 156.637 51.544 156.36C51.48 156.061 51.448 155.72 51.448 155.336V148.968C51.448 148.221 51.32 147.571 51.064 147.016C50.808 146.461 50.424 146.035 49.912 145.736C49.4213 145.416 48.8027 145.256 48.056 145.256C47.0533 145.256 46.2107 145.555 45.528 146.152C44.8453 146.728 44.4507 147.475 44.344 148.392V155.4C44.344 155.741 44.3013 156.061 44.216 156.36C44.152 156.659 43.9813 156.893 43.704 157.064C43.448 157.235 43.0107 157.32 42.392 157.32ZM70.909 157.256C70.2903 157.256 69.8317 157.139 69.533 156.904C69.2343 156.669 69.085 156.349 69.085 155.944L69.309 154.888C69.1383 155.165 68.8503 155.496 68.445 155.88C68.0397 156.243 67.5063 156.573 66.845 156.872C66.1837 157.149 65.3837 157.288 64.445 157.288C63.4423 157.288 62.493 157.085 61.597 156.68C60.7223 156.253 59.9437 155.677 59.261 154.952C58.5997 154.205 58.0663 153.363 57.661 152.424C57.277 151.464 57.085 150.44 57.085 149.352C57.085 148.307 57.277 147.325 57.661 146.408C58.0663 145.469 58.6103 144.637 59.293 143.912C59.9757 143.187 60.7543 142.621 61.629 142.216C62.525 141.789 63.4637 141.576 64.445 141.576C65.3197 141.576 66.0557 141.693 66.653 141.928C67.2717 142.163 67.7943 142.461 68.221 142.824C68.6477 143.165 68.9997 143.528 69.277 143.912L69.085 142.984C69.085 142.515 69.2343 142.163 69.533 141.928C69.8317 141.672 70.301 141.544 70.941 141.544C71.5383 141.544 71.965 141.64 72.221 141.832C72.477 142.003 72.637 142.248 72.701 142.568C72.765 142.867 72.797 143.208 72.797 143.592V155.304C72.797 155.667 72.765 155.997 72.701 156.296C72.637 156.595 72.4663 156.829 72.189 157C71.933 157.171 71.5063 157.256 70.909 157.256ZM65.021 153.544C65.7463 153.544 66.397 153.363 66.973 153C67.549 152.637 68.0077 152.147 68.349 151.528C68.7117 150.888 68.893 150.184 68.893 149.416C68.893 148.584 68.7117 147.859 68.349 147.24C67.9863 146.621 67.5063 146.141 66.909 145.8C66.333 145.437 65.6823 145.256 64.957 145.256C64.1677 145.256 63.4637 145.448 62.845 145.832C62.2263 146.195 61.7357 146.696 61.373 147.336C61.0317 147.955 60.861 148.659 60.861 149.448C60.861 150.216 61.0423 150.909 61.405 151.528C61.7677 152.147 62.2583 152.637 62.877 153C63.517 153.363 64.2317 153.544 65.021 153.544ZM83.4638 157.32C82.1198 157.32 81.0211 157.117 80.1678 156.712C79.3358 156.307 78.7171 155.688 78.3118 154.856C77.9278 154.024 77.7358 152.979 77.7358 151.72V145.512L76.3278 145.576C75.8158 145.576 75.4531 145.427 75.2398 145.128C75.0264 144.829 74.9198 144.339 74.9198 143.656C74.9198 142.995 75.0371 142.515 75.2718 142.216C75.5064 141.917 75.8904 141.768 76.4238 141.768L77.7358 141.832V138.152C77.7358 137.768 77.7678 137.437 77.8318 137.16C77.9171 136.883 78.0878 136.669 78.3438 136.52C78.6211 136.349 79.0478 136.264 79.6238 136.264C80.2211 136.264 80.6478 136.349 80.9038 136.52C81.1811 136.691 81.3518 136.925 81.4158 137.224C81.5011 137.501 81.5438 137.811 81.5438 138.152V141.832C81.8424 141.811 82.2371 141.8 82.7278 141.8C83.2398 141.8 83.6984 141.789 84.1038 141.768C84.5731 141.768 85.0744 141.779 85.6078 141.8C86.1411 141.8 86.5464 141.8 86.8238 141.8V138.152C86.8238 137.768 86.8558 137.437 86.9198 137.16C86.9838 136.883 87.1438 136.669 87.3998 136.52C87.6771 136.349 88.1144 136.264 88.7118 136.264C89.2878 136.264 89.7038 136.349 89.9598 136.52C90.2371 136.691 90.4078 136.925 90.4718 137.224C90.5571 137.501 90.5998 137.811 90.5998 138.152V141.864L93.1918 141.768C93.5544 141.768 93.8744 141.811 94.1518 141.896C94.4504 141.96 94.6851 142.131 94.8558 142.408C95.0264 142.664 95.1118 143.091 95.1118 143.688C95.1118 144.285 95.0264 144.723 94.8558 145C94.6851 145.256 94.4504 145.416 94.1518 145.48C93.8744 145.544 93.5651 145.576 93.2238 145.576L90.5998 145.512V151.592C90.5998 152.211 90.6638 152.669 90.7917 152.968C90.9198 153.245 91.1331 153.437 91.4318 153.544C91.7518 153.629 92.1678 153.672 92.6798 153.672C93.0851 153.672 93.4264 153.704 93.7038 153.768C94.0024 153.832 94.2264 153.992 94.3758 154.248C94.5464 154.483 94.6318 154.877 94.6318 155.432C94.6318 156.029 94.5358 156.467 94.3438 156.744C94.1731 157 93.9384 157.16 93.6398 157.224C93.3411 157.288 93.0211 157.32 92.6798 157.32C91.3358 157.32 90.2264 157.117 89.3518 156.712C88.4984 156.307 87.8584 155.688 87.4318 154.856C87.0264 154.024 86.8238 152.979 86.8238 151.72V145.512C86.7384 145.512 86.5358 145.523 86.2158 145.544C85.9171 145.544 85.5758 145.555 85.1918 145.576C84.8078 145.576 84.4771 145.576 84.1998 145.576C83.8158 145.576 83.3571 145.576 82.8238 145.576C82.3118 145.555 81.8851 145.533 81.5438 145.512V151.592C81.5438 152.211 81.5971 152.669 81.7038 152.968C81.8104 153.245 82.0024 153.437 82.2798 153.544C82.5571 153.629 82.9518 153.672 83.4638 153.672C83.8691 153.672 84.2104 153.704 84.4878 153.768C84.7864 153.832 85.0104 153.992 85.1598 154.248C85.3091 154.483 85.3838 154.877 85.3838 155.432C85.3838 156.029 85.2878 156.467 85.0958 156.744C84.9251 157 84.6904 157.16 84.3918 157.224C84.1144 157.288 83.8051 157.32 83.4638 157.32ZM101.288 163.624C100.606 163.325 100.211 162.984 100.104 162.6C99.9976 162.237 100.094 161.747 100.392 161.128L108.648 142.632C108.947 141.949 109.267 141.544 109.608 141.416C109.95 141.267 110.472 141.341 111.176 141.64C111.838 141.939 112.222 142.269 112.328 142.632C112.456 142.995 112.382 143.485 112.104 144.104L103.784 162.696C103.507 163.379 103.198 163.773 102.856 163.88C102.515 164.008 101.992 163.923 101.288 163.624ZM104.264 155.784L96.8723 144.424C96.4883 143.848 96.3283 143.368 96.3923 142.984C96.4776 142.6 96.8189 142.227 97.4163 141.864C98.0776 141.459 98.5896 141.299 98.9523 141.384C99.3363 141.469 99.7203 141.811 100.104 142.408L105.96 151.528L104.264 155.784Z" fill="#FE7C58"/>
<defs>
<clipPath id="clip0_1504_3757">
<rect width="136" height="108" fill="white"/>
</clipPath>
</defs>
</svg>
